<?xml version="1.0" encoding="UTF-8"?>
<svg id="Calque_1" data-name="Calque 1" xmlns="http://www.w3.org/2000/svg" viewBox="0 0 151 156.51">
  <defs>
    <style>
      .cls-1 {
        fill: #333;
      }

      .cls-1, .cls-2, .cls-3, .cls-4, .cls-5, .cls-6, .cls-7, .cls-8, .cls-9, .cls-10, .cls-11 {
        stroke-width: 0px;
      }

      .cls-2 {
        fill: #cddce3;
      }

      .cls-3 {
        fill: #08f8f7;
      }

      .cls-4 {
        fill: #d3d7d6;
      }

      .cls-5 {
        fill: #4b4640;
      }

      .cls-6 {
        fill: #c79e46;
      }

      .cls-7 {
        fill: #022838;
      }

      .cls-12 {
        fill: none;
        stroke: #333;
        stroke-miterlimit: 10;
        stroke-width: 1.76px;
      }

      .cls-8 {
        fill: #f4c544;
      }

      .cls-9 {
        fill: #e2e2e2;
      }

      .cls-10 {
        fill: #48433d;
      }

      .cls-11 {
        fill: #fff;
      }
    </style>
  </defs>
  <path class="cls-2" d="M141,79.22c2.33-3.33,4.67-6.67,7-10-3.67,1-7.33,2-11,3"/>
  <circle class="cls-2" cx="148" cy="69.22" r="3"/>
  <path class="cls-2" d="M10,82.22c-2.33-3.33-4.67-6.67-7-10,3.67,1,7.33,2,11,3"/>
  <circle class="cls-2" cx="3" cy="72.22" r="3"/>
  <rect class="cls-2" x="6.66" y="41.43" width="138.54" height="115.08" rx="55.26" ry="55.26"/>
  <rect class="cls-7" x="29.4" y="82.32" width="93.8" height="58.81" rx="27.24" ry="27.24"/>
  <path class="cls-4" d="M20.46,61.13c-1.59-.34-3.8-.96-6.26-2.11-1.45-.68-8.41-3.92-11.48-9.48-3.56-6.43-1.81-15.73,3.91-23.44-.46,1.04-3.69,8.67.26,16.59,4.82,9.65,15.71,10.51,16.18,10.53-.52.65-1.04,1.35-1.57,2.11-.37.54-.72,1.07-1.04,1.58v4.21Z"/>
  <path class="cls-9" d="M22.87,53.45c-6.97-.39-13.18-4.39-16.23-10.49-4.07-8.14-.45-15.96,0-16.9,4.29-4.66,11.46-11.34,21.92-16.63,10.46-5.29,19.34-6.75,26.93-7.92,10.01-1.55,26.03-2.8,45.94,1.06,9.54,1.76,23.45,5.88,36.44,16.37,1.61,1.3,3.12,2.63,4.52,3.95,3.35,3.18,5.27,7.63,5.11,12.25-.08,2.17-.54,4.58-1.71,7.04-4.42,9.31-14.77,10.51-15.31,10.56-1.38-1.41-2.95-2.84-4.75-4.22-7.2-5.56-14.72-7.91-20.07-8.98-6.21-1.28-14.68-2.65-24.82-3.17-6.86-.35-13.47-.65-22.18.53-9.28,1.25-17.14,2.22-25.35,7.39-4.99,3.15-8.4,6.72-10.44,9.17Z"/>
  <path class="cls-4" d="M131.13,59.25c1.54-.4,3.69-1.08,6.09-2.27,1.56-.77,8.17-4,10.99-9.14,3.41-6.2,1.73-15.17-3.75-22.6.44.97,3.61,8.33-.25,16-4.55,9.03-14.61,10.04-15.19,10.09.4.7.8,1.39,1.2,2.1.3.53.61,1.07.91,1.6v4.22Z"/>
  <path class="cls-5" d="M20.51,51.62v13.35c0,.41.07.81.22,1.19.26.65.61,1.44,1.1,2.32,3.52,6.29,10.66,10.66,26.93,13.73,23.11,4.36,41.56,1.73,45.94,1.06,14.09-2.17,31.42-5.05,35.91-16.37.16-.4.28-.76.38-1.06.1-.32.15-.65.15-.99v-12.84c0-.64-.19-1.27-.54-1.81-.59-.9-1.45-2.1-2.63-3.35-6.68-7.12-16.45-8.66-29.57-10.56-2.21-.32-5.49-.74-9.51-1.06-15.67-.98-28.24-.05-36.97,1.06-9.55,1.21-16.98,2.94-24.29,7.92-2.83,1.93-4.89,3.83-6.16,5.09-.62.62-.97,1.46-.97,2.34Z"/>
  <path class="cls-10" d="M75.15,56.64c.88,9.32,1.76,18.64,2.64,27.96,4.77-.02,10.09-.31,15.84-1.06,3.77-.49,7.3-1.13,10.56-1.84-3.7-8.2-7.39-16.4-11.09-24.6-2.74-.85-6.99-1.78-12.15-1.42-2.22.16-4.17.52-5.81.95Z"/>
  <path class="cls-8" d="M20.43,70.16c12.04-4.51,31.6-10.16,56.2-10.03,23.79.12,42.75,5.59,54.62,10.03v-6.87c-11.52-4.55-30.54-10.44-54.62-10.56-24.9-.13-44.53,5.95-56.2,10.56v6.87Z"/>
  <path class="cls-6" d="M133.24,69.05c0,.87-.72,1.58-1.58,1.58s-1.58-.72-1.58-1.58v-5.81c.27-.64.89-1.06,1.58-1.06s1.32.42,1.58,1.06v5.81Z"/>
  <path class="cls-6" d="M21.51,69.17c0,.87-.72,1.58-1.58,1.58s-1.58-.72-1.58-1.58v-5.81c.27-.64.89-1.06,1.58-1.06s1.32.42,1.58,1.06v5.81Z"/>
  <g>
    <ellipse class="cls-12" cx="77.7" cy="18.71" rx="7.06" ry="7.11"/>
    <path class="cls-11" d="M75.75,16.69c.64-3.65,1.28-7.3,1.92-10.95v11.12c-.16,0-.4.04-.67.17-.23.11-.39.24-.5.34-.25-.22-.5-.45-.75-.67h0Z"/>
    <path class="cls-1" d="M79.68,16.72c-.64-3.65-1.28-7.3-1.92-10.95,0,3.71,0,7.41,0,11.12.16,0,.4.04.67.17.23.11.39.24.5.34.25-.22.5-.45.75-.67h0Z"/>
    <path class="cls-11" d="M75.77,20.65c-3.63-.65-7.25-1.29-10.87-1.94h11.04c0,.16.04.4.17.67.11.23.24.4.34.5-.22.25-.44.5-.67.76h0Z"/>
    <path class="cls-1" d="M75.8,16.69c-3.63.65-7.25,1.29-10.87,1.94h11.04c0-.16.04-.4.17-.67.11-.23.24-.4.34-.5-.22-.25-.44-.5-.67-.76h0Z"/>
    <path class="cls-11" d="M79.71,16.69c3.63.65,7.25,1.29,10.87,1.94h-11.04c0-.16-.04-.4-.17-.67-.11-.23-.24-.4-.34-.5.22-.25.44-.5.67-.76h0Z"/>
    <path class="cls-1" d="M79.68,20.65c3.63-.65,7.25-1.29,10.87-1.94h-11.04c0,.16-.04.4-.17.67-.11.23-.24.4-.34.5.22.25.44.5.67.76h0Z"/>
    <path class="cls-11" d="M79.68,20.65c-.64,3.65-1.28,7.3-1.92,10.95v-11.12c.16,0,.4-.04.67-.17.23-.11.39-.24.5-.34.25.22.5.45.75.67h0Z"/>
    <path class="cls-1" d="M75.75,20.62c.64,3.65,1.28,7.3,1.92,10.95,0-3.71,0-7.41,0-11.12-.16,0-.4-.04-.67-.17-.23-.11-.39-.24-.5-.34-.25.22-.5.45-.75.67h0Z"/>
  </g>
  <rect class="cls-3" x="72.02" y="99.43" width="11.02" height="3.14"/>
  <path class="cls-3" d="M72.02,104.25v8h-4c3.33,3.33,6.67,6.67,10,10,3.33-3.33,6.67-6.67,10-10h-5v-8h-11Z"/>
  <rect class="cls-3" x="72" y="93.59" width="11.02" height="4.09"/>
  <rect class="cls-3" x="64.48" y="123.85" width="27.86" height="3.14"/>
</svg>