<?xml version="1.0" encoding="UTF-8"?>
<svg id="Calque_1" data-name="Calque 1" xmlns="http://www.w3.org/2000/svg" viewBox="0 0 152.31 156.51">
  <defs>
    <style>
      .cls-1 {
        fill: #333;
      }

      .cls-1, .cls-2, .cls-3, .cls-4, .cls-5, .cls-6, .cls-7, .cls-8, .cls-9, .cls-10, .cls-11, .cls-12, .cls-13 {
        stroke-width: 0px;
      }

      .cls-2 {
        fill: #cddce3;
      }

      .cls-3 {
        fill: #a2f8fb;
      }

      .cls-4 {
        fill: #d3d7d6;
      }

      .cls-5 {
        fill: #4b4640;
      }

      .cls-6 {
        fill: #c79e46;
      }

      .cls-7 {
        fill: #a4faff;
      }

      .cls-8 {
        fill: #022838;
      }

      .cls-14 {
        fill: none;
        stroke: #333;
        stroke-miterlimit: 10;
        stroke-width: 1.76px;
      }

      .cls-9 {
        fill: #f4c544;
      }

      .cls-10 {
        fill: #c7ffff;
      }

      .cls-11 {
        fill: #e2e2e2;
      }

      .cls-12 {
        fill: #48433d;
      }

      .cls-13 {
        fill: #fff;
      }
    </style>
  </defs>
  <rect class="cls-2" x="8.49" y="41.43" width="138.54" height="115.08" rx="55.26" ry="55.26"/>
  <rect class="cls-8" x="31.23" y="82.32" width="93.8" height="58.81" rx="27.24" ry="27.24"/>
  <path class="cls-4" d="M22.29,61.13c-1.59-.34-3.8-.96-6.26-2.11-1.45-.68-8.41-3.92-11.48-9.48-3.56-6.43-1.81-15.73,3.91-23.44-.46,1.04-3.69,8.67.26,16.59,4.82,9.65,15.71,10.51,16.18,10.53-.52.65-1.04,1.35-1.57,2.11-.37.54-.72,1.07-1.04,1.58v4.21Z"/>
  <path class="cls-11" d="M24.7,53.45c-6.97-.39-13.18-4.39-16.23-10.49-4.07-8.14-.45-15.96,0-16.9,4.29-4.66,11.46-11.34,21.92-16.63,10.46-5.29,19.34-6.75,26.93-7.92,10.01-1.55,26.03-2.8,45.94,1.06,9.54,1.76,23.45,5.88,36.44,16.37,1.61,1.3,3.12,2.63,4.52,3.95,3.35,3.18,5.27,7.63,5.11,12.25-.08,2.17-.54,4.58-1.71,7.04-4.42,9.31-14.77,10.51-15.31,10.56-1.38-1.41-2.95-2.84-4.75-4.22-7.2-5.56-14.72-7.91-20.07-8.98-6.21-1.28-14.68-2.65-24.82-3.17-6.86-.35-13.47-.65-22.18.53-9.28,1.25-17.14,2.22-25.35,7.39-4.99,3.15-8.4,6.72-10.44,9.17Z"/>
  <path class="cls-4" d="M132.96,59.25c1.54-.4,3.69-1.08,6.09-2.27,1.56-.77,8.17-4,10.99-9.14,3.41-6.2,1.73-15.17-3.75-22.6.44.97,3.61,8.33-.25,16-4.55,9.03-14.61,10.04-15.19,10.09.4.7.8,1.39,1.2,2.1.3.53.61,1.07.91,1.6v4.22Z"/>
  <path class="cls-5" d="M22.34,51.62v13.35c0,.41.07.81.22,1.19.26.65.61,1.44,1.1,2.32,3.52,6.29,10.66,10.66,26.93,13.73,23.11,4.36,41.56,1.73,45.94,1.06,14.09-2.17,31.42-5.05,35.91-16.37.16-.4.28-.76.38-1.06.1-.32.15-.65.15-.99v-12.84c0-.64-.19-1.27-.54-1.81-.59-.9-1.45-2.1-2.63-3.35-6.68-7.12-16.45-8.66-29.57-10.56-2.21-.32-5.49-.74-9.51-1.06-15.67-.98-28.24-.05-36.97,1.06-9.55,1.21-16.98,2.94-24.29,7.92-2.83,1.93-4.89,3.83-6.16,5.09-.62.62-.97,1.46-.97,2.34Z"/>
  <path class="cls-12" d="M76.98,56.64c.88,9.32,1.76,18.64,2.64,27.96,4.77-.02,10.09-.31,15.84-1.06,3.77-.49,7.3-1.13,10.56-1.84-3.7-8.2-7.39-16.4-11.09-24.6-2.74-.85-6.99-1.78-12.15-1.42-2.22.16-4.17.52-5.81.95Z"/>
  <path class="cls-9" d="M22.26,70.16c12.04-4.51,31.6-10.16,56.2-10.03,23.79.12,42.75,5.59,54.62,10.03v-6.87c-11.52-4.55-30.54-10.44-54.62-10.56-24.9-.13-44.53,5.95-56.2,10.56v6.87Z"/>
  <path class="cls-6" d="M135.07,69.05c0,.87-.72,1.58-1.58,1.58s-1.58-.72-1.58-1.58v-5.81c.27-.64.89-1.06,1.58-1.06s1.32.42,1.58,1.06v5.81Z"/>
  <path class="cls-6" d="M23.34,69.17c0,.87-.72,1.58-1.58,1.58s-1.58-.72-1.58-1.58v-5.81c.27-.64.89-1.06,1.58-1.06s1.32.42,1.58,1.06v5.81Z"/>
  <circle class="cls-7" cx="56.81" cy="105.68" r="8.5"/>
  <circle class="cls-3" cx="100.81" cy="105.68" r="8.5"/>
  <path class="cls-10" d="M57.72,94.67c2.78.39,4.28,1.73,5,1,.47-.47.26-1.45,0-2-.65-1.37-2.42-1.7-4-2-.56-.1-2.06-.34-4,0-1.42.25-3.55.63-4,2-.07.21-.21.64,0,1,.63,1.09,3.32-.51,7,0Z"/>
  <path class="cls-10" d="M100.64,90.06c-2.78.39-4.28,1.73-5,1-.47-.47-.26-1.45,0-2,.65-1.37,2.42-1.7,4-2,.56-.1,2.06-.34,4,0,1.42.25,3.55.63,4,2,.07.21.21.64,0,1-.63,1.09-3.32-.51-7,0Z"/>
  <path class="cls-7" d="M86.09,127.19c0,3.99-3.26,7.2-6.98,7.45-4.44.3-8-3.73-7.98-7,0-1.24.52-2.15,1-3,.36-.64,2.82-5.06,6.98-4.91,3.69.14,6.98,3.49,6.98,7.45Z"/>
  <path class="cls-2" d="M142.31,76.18c2.33-3.33,4.67-6.67,7-10-3.67,1-7.33,2-11,3"/>
  <circle class="cls-2" cx="149.31" cy="66.18" r="3"/>
  <path class="cls-2" d="M14.94,82.66c-3.98-.85-7.96-1.69-11.94-2.54,3.36-1.77,6.73-3.54,10.09-5.31"/>
  <circle class="cls-2" cx="3" cy="80.13" r="3" transform="translate(-13.65 1.69) rotate(-9.84)"/>
  <g>
    <ellipse class="cls-14" cx="78.41" cy="16.45" rx="7.06" ry="7.11"/>
    <path class="cls-13" d="M76.46,14.43c.64-3.65,1.28-7.3,1.92-10.95v11.12c-.16,0-.4.04-.67.17-.23.11-.39.24-.5.34-.25-.22-.5-.45-.75-.67h0Z"/>
    <path class="cls-1" d="M80.39,14.46c-.64-3.65-1.28-7.3-1.92-10.95v11.12c.16,0,.4.04.67.17.23.11.39.24.5.34.25-.22.5-.45.75-.67h0Z"/>
    <path class="cls-13" d="M76.48,18.39c-3.63-.65-7.25-1.29-10.87-1.94h11.04c0,.16.04.4.17.67.11.23.24.4.34.5-.22.25-.44.5-.67.76h0Z"/>
    <path class="cls-1" d="M76.51,14.43c-3.63.65-7.25,1.29-10.87,1.94h11.04c0-.16.04-.4.17-.67.11-.23.24-.4.34-.5-.22-.25-.44-.5-.67-.76h0Z"/>
    <path class="cls-13" d="M80.42,14.43c3.63.65,7.25,1.29,10.87,1.94h-11.04c0-.16-.04-.4-.17-.67-.11-.23-.24-.4-.34-.5.22-.25.44-.5.67-.76h0Z"/>
    <path class="cls-1" d="M80.4,18.39c3.63-.65,7.25-1.29,10.87-1.94h-11.04c0,.16-.04.4-.17.67-.11.23-.24.4-.34.5.22.25.44.5.67.76h0Z"/>
    <path class="cls-13" d="M80.39,18.39c-.64,3.65-1.28,7.3-1.92,10.95v-11.12c.16,0,.4-.04.67-.17.23-.11.39-.24.5-.34.25.22.5.45.75.67h0Z"/>
    <path class="cls-1" d="M76.46,18.36c.64,3.65,1.28,7.3,1.92,10.95v-11.12c-.16,0-.4-.04-.67-.17-.23-.11-.39-.24-.5-.34-.25.22-.5.45-.75.67h0Z"/>
  </g>
</svg>