<?xml version="1.0" encoding="utf-8"?>
<!-- Generator: Adobe Illustrator 23.0.2, SVG Export Plug-In . SVG Version: 6.00 Build 0)  -->
<svg version="1.1" id="Calque_1" xmlns="http://www.w3.org/2000/svg" xmlns:xlink="http://www.w3.org/1999/xlink" x="0px" y="0px"
	 width="528px" height="318px" viewBox="0 0 528 318" style="enable-background:new 0 0 528 318;" xml:space="preserve">
<g>
	<path style="fill:#EC6500;" d="M156.92799,79.28255C156.92799,34.61601,122.42384,0,79.01939,0C34.50418,0,0,34.61601,0,79.28255
		s34.50418,79.2756,79.01939,79.2756C122.42384,158.55815,156.92799,123.9491,156.92799,79.28255 M94.99654,38.73016
		c0,4.44344-3.59084,8.05292-8.02701,8.05292c-4.43613,0-8.02698-3.60949-8.02698-8.05292c0-4.4506,3.59084-8.05303,8.02698-8.05303
		C91.40571,30.67714,94.99654,34.27956,94.99654,38.73016 M79.08228,89.90771c0.57284,2.13065,1.25747,4.26131,2.15868,6.37795
		c5.98705,14.14362,21.00012,25.70796,39.01718,31.60232c0,0-37.68984,6.46906-51.6899-20.92102
		c-3.15072-6.58115-4.03794-13.16936-3.33935-19.7365c-1.55789-0.59579-3.10181-1.24761-4.59684-2.03954
		c-17.05996-9.10429-25.18477-30.9785-23.96222-53.58871c0,0,6.46912,14.80946,17.88434,27.94385
		c4.49903,5.16542,9.48706,9.30053,14.92923,12.44043c2.69661-6.25176,6.39925-12.46149,10.59087-18.60813
		c0,0-3.22057,9.76318-2.96908,22.24563c11.31743,4.31039,24.33945,4.82202,38.96828,1.47883l0.03493,0.00706
		C106.19519,85.12782,92.44662,90.31431,79.08228,89.90771"/>
	<path style="fill:#EC6500;" d="M334.91415,184.14966c6.7485,0,12.1138-5.38263,12.1138-12.32825
		c0-6.93866-5.3653-12.3214-12.1138-12.3214c-6.92322,0-12.28851,5.38274-12.28851,12.3214
		C322.62564,178.76703,327.99094,184.14966,334.91415,184.14966"/>
	<path style="fill:#5F1265;" d="M219.31358,212.62405c-9.41023,0-17.01106,6.84744-19.33044,17.01712l31.08804-2.4671v-0.47655
		C231.07118,222.46423,229.92545,212.62405,219.31358,212.62405 M47.69388,212.94638
		c-17.01109,0-28.89439,12.45454-28.89439,30.28465c0,13.58293,6.02897,21.69197,16.13085,21.69197
		c10.11581,0,16.7456-10.73732,18.86937-21.46065v-30.20753C51.30567,212.98146,48.81863,212.94638,47.69388,212.94638
		 M138.35207,212.46278c-18.4991,0-29.53707,11.43825-29.53707,30.60709c0,13.68098,5.78445,21.85313,15.48112,21.85313
		c8.23656,0,15.57195-6.87549,19.67973-18.41187v-33.84505C142.08263,212.46278,139.77026,212.46278,138.35207,212.46278
		 M386.75568,264.88098c2.72455,0.45554,5.42117,0.68686,8.04794,0.68686c18.63184,0,28.89438-11.0948,28.89438-31.25887
		c0-13.07129-6.07788-21.52376-15.48114-21.52376c-8.18066,0-17.95419,6.70029-21.46118,21.66391V264.88098z M288.18225,280.71365
		h-18.16376v-66.95416h-10.50705v-16.7719h10.52798c0.19562-12.3353,1.92816-21.60086,8.76056-28.98805
		c6.17566-6.56714,13.77652-9.75612,23.2496-9.75612c4.9252,0,9.82938,0.93213,12.53998,1.72415l2.39624,0.70787l-3.98206,16.4424
		l-2.62677-0.74989c-2.005-0.57472-5.31641-1.19853-7.83838-1.19853c-4.51993,0-8.12479,1.68213-10.70264,4.99025
		c-3.01797,3.98796-3.55591,9.74916-3.63977,16.82793h20.18976v16.7719h-20.2037V280.71365z M344.09879,280.71365h-18.16382
		v-83.72606h18.16382V280.71365z M528,280.71365h-18.17075v-55.48094c0-10.36592-3.13678-12.44749-8.20865-12.44749
		c-9.026,0-19.64481,8.57866-22.7536,15.88174v52.04669h-18.16382v-120.8512H478.867v47.22466
		c6.16168-5.94333,15.84439-11.71855,25.98813-11.71855c15.35544,0,23.14487,9.1183,23.14487,27.10968V280.71365z
		 M32.66684,282.33267c-20.05699,0-32.52014-14.85849-32.52014-38.77919c0-23.27594,17.85639-48.02376,50.94241-48.02376
		c4.85532,0,11.61084,0.66583,18.53403,1.82234l2.18664,0.36446v82.99713H54.61007v-9.72107
		C49.03519,278.08536,41.09205,282.33267,32.66684,282.33267 M219.63498,282.33267c-24.50716,0-39.14297-15.40515-39.14297-41.21123
		c0-26.08643,16.96916-45.75288,39.46431-45.75288c18.16377,0,29.4463,11.99896,29.4463,31.32896
		c0,4.61171-0.67067,9.27953-1.32736,13.23946l-0.34933,2.08157l-48.59509,2.55817
		c1.18767,13.14835,8.45319,20.34628,20.66479,20.34628c6.60881,0,14.22365-3.34314,18.84146-6.64423l2.38921-1.71716
		l8.32741,15.08975l-1.77444,1.37372C240.31374,278.68115,229.34561,282.33267,219.63498,282.33267 M386.75568,316.38101h-18.16379
		V196.98759h17.36038v10.2888c6.14774-7.50632,15.02008-11.90784,24.68875-11.90784c18.96719,0,31.70978,15.84671,31.70978,39.43103
		c0,23.5773-14.45419,47.37186-46.73676,47.37186c-2.35434,0-5.526-0.21725-8.85837-0.60974V316.38101z M126.23126,318
		c-9.94118,0-21.08397-2.33386-29.06905-6.08353l-2.03993-0.96021l5.02299-16.96808l2.68963,1.12836
		c9.95514,4.17722,17.8005,6.11862,24.68877,6.11862c4.22656,0,17.09492,0,17.09492-27.85263v-2.25681
		c-5.79147,7.14188-13.62982,11.20694-22.10393,11.20694c-19.95919,0-32.35249-15.10376-32.35249-39.42403
		c0-27.55119,20.33644-47.54008,48.35058-47.54008c8.27847,0,13.09888,0.44853,21.48215,1.99045l2.14471,0.39249v76.44403
		C162.13962,302.85419,149.7254,318,126.23126,318"/>
</g>
</svg>
