<?xml version="1.0" encoding="UTF-8"?>
<svg id="Calque_1" data-name="Calque 1" xmlns="http://www.w3.org/2000/svg" viewBox="0 0 768.7 526.25">
  <defs>
    <style>
      .cls-1, .cls-2 {
        stroke-width: 2.84px;
      }

      .cls-1, .cls-2, .cls-3, .cls-4, .cls-5, .cls-6, .cls-7 {
        stroke-miterlimit: 10;
      }

      .cls-1, .cls-2, .cls-7 {
        stroke: #4f4f4f;
      }

      .cls-1, .cls-7 {
        fill: #4f4f4f;
      }

      .cls-2, .cls-4, .cls-5 {
        fill: #fff;
      }

      .cls-3 {
        fill: none;
        stroke: #7a1897;
        stroke-width: 18.58px;
      }

      .cls-8 {
        letter-spacing: 0em;
      }

      .cls-8, .cls-9, .cls-10, .cls-11 {
        font-size: 72px;
      }

      .cls-12 {
        font-size: 80px;
      }

      .cls-13 {
        stroke-width: 0px;
      }

      .cls-13, .cls-14 {
        fill: #7a1897;
      }

      .cls-14 {
        font-family: CocogooseProTrial-Semilight, CocogooseProTrial;
        font-weight: 300;
      }

      .cls-4 {
        stroke-width: 3.54px;
      }

      .cls-4, .cls-5 {
        stroke: #fff;
      }

      .cls-10 {
        letter-spacing: -.03em;
      }

      .cls-11 {
        letter-spacing: 0em;
      }

      .cls-5 {
        stroke-width: 4.42px;
      }

      .cls-6 {
        fill: #d3d3d3;
        stroke: #d3d3d3;
        stroke-width: 3.07px;
      }

      .cls-7 {
        stroke-width: 3px;
      }
    </style>
  </defs>
  <path class="cls-7" d="M129.72,1.5h496.89c17.8,0,32.25,14.45,32.25,32.25v293.6H97.46V33.75c0-17.8,14.45-32.25,32.25-32.25Z"/>
  <path class="cls-2" d="M141.95,18.07h470.52c16.86,0,30.54,13.69,30.54,30.54v278.02H111.4V48.61c0-16.86,13.69-30.54,30.54-30.54Z"/>
  <path class="cls-6" d="M97.47,325.78h561.39v37.34c0,12.18-9.89,22.07-22.07,22.07H119.54c-12.18,0-22.07-9.89-22.07-22.07v-37.34h0Z"/>
  <circle class="cls-1" cx="381.36" cy="356" r="14"/>
  <ellipse class="cls-3" cx="381.69" cy="169.56" rx="74.47" ry="74.97"/>
  <path class="cls-5" d="M361.13,148.26c6.76-38.46,13.52-76.93,20.28-115.39,0,39.06,0,78.11,0,117.17-1.65.1-4.21.47-7.05,1.77-2.42,1.11-4.17,2.5-5.29,3.55-2.65-2.37-5.29-4.73-7.94-7.1Z"/>
  <path class="cls-13" d="M402.58,148.54c-6.76-38.46-13.52-76.93-20.28-115.39,0,39.06,0,78.11,0,117.17,1.65.1,4.21.47,7.05,1.77,2.42,1.11,4.17,2.5,5.29,3.55,2.65-2.37,5.29-4.73,7.94-7.1Z"/>
  <path class="cls-4" d="M361.36,189.98c-38.21-6.81-76.42-13.61-114.63-20.42,38.8,0,77.6,0,116.39,0,.1,1.66.47,4.24,1.76,7.1,1.1,2.43,2.48,4.19,3.53,5.33-2.35,2.66-4.7,5.33-7.05,7.99Z"/>
  <path class="cls-13" d="M361.64,148.26c-38.21,6.81-76.42,13.61-114.63,20.42,38.8,0,77.6,0,116.39,0,.1-1.66.47-4.24,1.76-7.1,1.1-2.43,2.48-4.19,3.53-5.33-2.35-2.66-4.7-5.33-7.05-7.99Z"/>
  <path class="cls-4" d="M402.9,148.26c38.21,6.81,76.42,13.61,114.63,20.42-38.8,0-77.6,0-116.39,0-.1-1.66-.47-4.24-1.76-7.1-1.1-2.43-2.48-4.19-3.53-5.33,2.35-2.66,4.7-5.33,7.05-7.99Z"/>
  <path class="cls-13" d="M402.62,189.98c38.21-6.81,76.42-13.61,114.63-20.42-38.8,0-77.6,0-116.39,0-.1,1.66-.47,4.24-1.76,7.1-1.1,2.43-2.48,4.19-3.53,5.33,2.35,2.66,4.7,5.33,7.05,7.99Z"/>
  <path class="cls-4" d="M402.58,190c-6.76,38.46-13.52,76.93-20.28,115.39,0-39.06,0-78.11,0-117.17,1.65-.1,4.21-.47,7.05-1.77,2.42-1.11,4.17-2.5,5.29-3.55,2.65,2.37,5.29,4.73,7.94,7.1Z"/>
  <path class="cls-13" d="M361.13,189.72c6.76,38.46,13.52,76.93,20.28,115.39,0-39.06,0-78.11,0-117.17-1.65-.1-4.21-.47-7.05-1.77-2.42-1.11-4.17-2.5-5.29-3.55-2.65,2.37-5.29,4.73-7.94,7.1Z"/>
  <text class="cls-14" transform="translate(0 474.71) scale(.89 1)"><tspan class="cls-12" x="0" y="0">E</tspan><tspan class="cls-9" x="54.54" y="0">xis</tspan><tspan class="cls-11" x="163.43" y="0">t</tspan><tspan class="cls-9" x="190.52" y="0">en</tspan><tspan class="cls-10" x="295.62" y="0">c</tspan><tspan class="cls-8" x="340.41" y="0">e</tspan></text>
  <text class="cls-14" transform="translate(349 475.71) scale(.89 1)"><tspan class="cls-12" x="0" y="0">N</tspan><tspan class="cls-9" x="66.19" y="0">umerique</tspan></text>
</svg>