<?xml version="1.0" encoding="UTF-8"?>
<svg id="Calque_1" data-name="Calque 1" xmlns="http://www.w3.org/2000/svg" xmlns:xlink="http://www.w3.org/1999/xlink" viewBox="0 0 671.13 206.98">
  <defs>
    <style>
      .cls-1 {
        fill: none;
        stroke: #7a1897;
        stroke-width: 5.67px;
      }

      .cls-1, .cls-2, .cls-3 {
        stroke-miterlimit: 10;
      }

      .cls-4 {
        fill: gray;
      }

      .cls-4, .cls-5, .cls-6, .cls-7 {
        stroke-width: 0px;
      }

      .cls-2 {
        stroke-width: 1.08px;
      }

      .cls-2, .cls-3 {
        stroke: #fff;
      }

      .cls-2, .cls-3, .cls-7 {
        fill: #fff;
      }

      .cls-5 {
        fill: url(#Dégradé_sans_nom_141);
      }

      .cls-6, .cls-8 {
        fill: #7a1897;
      }

      .cls-9 {
        letter-spacing: -.03em;
      }

      .cls-3 {
        stroke-width: 1.35px;
      }

      .cls-10 {
        letter-spacing: 0em;
      }

      .cls-8 {
        font-family: CocogooseProTrial-Semilight, CocogooseProTrial;
        font-size: 72px;
        font-weight: 300;
      }
    </style>
    <linearGradient id="Dégradé_sans_nom_141" data-name="Dégradé sans nom 141" x1="302.37" y1="37.96" x2="361.58" y2="37.96" gradientUnits="userSpaceOnUse">
      <stop offset="0" stop-color="#e9f6ff"/>
      <stop offset="1" stop-color="#fff"/>
    </linearGradient>
  </defs>
  <path class="cls-5" d="M312.64,6.8c-.61-.05-4.19-.29-7.14,2.38-2.38,2.16-2.86,4.86-2.98,5.65-.4,19.44.25,34.86-.15,54.3,6.12-9.88,14.53-21.61,25.89-33.62,11.8-12.48,23.51-21.79,33.33-28.56-15.87-.4-33.08.25-48.95-.15Z"/>
  <rect class="cls-4" x="296.78" y="0" width="99.07" height="182.05" rx="13.02" ry="13.02"/>
  <path class="cls-7" d="M378.35,8.29c.61.02,1.23.07,1.83.19,1.71.33,3.99,1.11,5.86,3.03,2.95,3.04,3.47,7.35,3.47,9.05v148.98c0,1.26-.95,2.28-2.12,2.28h-81.95c-1.17,0-2.12-1.02-2.12-2.28V24.56c0-.48-.03-.95-.08-1.42-.18-1.71-.33-6.13,2.56-10.04.68-.92,1.42-1.67,2.17-2.28,2.06-1.68,4.69-2.52,7.34-2.52h7.94c1.17,0,2.12,1.02,2.12,2.28h0c0,1.26.95,2.28,2.12,2.28h38.87c1.17,0,2.12-1.02,2.12-2.28v-.21c0-1.28.98-2.31,2.17-2.28l7.72.19Z"/>
  <g>
    <ellipse class="cls-1" cx="346.97" cy="93.86" rx="22.72" ry="22.87"/>
    <path class="cls-3" d="M340.7,87.36c2.06-11.73,4.12-23.47,6.19-35.2,0,11.92,0,23.83,0,35.75-.5.03-1.29.14-2.15.54-.74.34-1.27.76-1.61,1.08-.81-.72-1.61-1.44-2.42-2.17Z"/>
    <path class="cls-6" d="M353.34,87.45c-2.06-11.73-4.12-23.47-6.19-35.2,0,11.92,0,23.83,0,35.75.5.03,1.29.14,2.15.54.74.34,1.27.76,1.61,1.08.81-.72,1.61-1.44,2.42-2.17Z"/>
    <path class="cls-2" d="M340.76,100.09c-11.66-2.08-23.31-4.15-34.97-6.23,11.84,0,23.67,0,35.51,0,.03.51.14,1.29.54,2.17.34.74.76,1.28,1.08,1.62-.72.81-1.43,1.62-2.15,2.44Z"/>
    <path class="cls-6" d="M340.85,87.36c-11.66,2.08-23.31,4.15-34.97,6.23h35.51c.03-.51.14-1.29.54-2.17.34-.74.76-1.28,1.08-1.62-.72-.81-1.43-1.62-2.15-2.44Z"/>
    <path class="cls-2" d="M353.44,87.36c11.66,2.08,23.31,4.15,34.97,6.23-11.84,0-23.67,0-35.51,0-.03-.51-.14-1.29-.54-2.17-.34-.74-.76-1.28-1.08-1.62.72-.81,1.43-1.62,2.15-2.44Z"/>
    <path class="cls-6" d="M353.35,100.09c11.66-2.08,23.31-4.15,34.97-6.23-11.84,0-23.67,0-35.51,0-.03.51-.14,1.29-.54,2.17-.34.74-.76,1.28-1.08,1.62.72.81,1.43,1.62,2.15,2.44Z"/>
    <path class="cls-2" d="M353.34,100.1c-2.06,11.73-4.12,23.47-6.19,35.2,0-11.92,0-23.83,0-35.75.5-.03,1.29-.14,2.15-.54.74-.34,1.27-.76,1.61-1.08.81.72,1.61,1.44,2.42,2.17Z"/>
    <path class="cls-6" d="M340.7,100.01c2.06,11.73,4.12,23.47,6.19,35.2,0-11.92,0-23.83,0-35.75-.5-.03-1.29-.14-2.15-.54-.74-.34-1.27-.76-1.61-1.08-.81.72-1.61,1.44-2.42,2.17Z"/>
  </g>
  <text class="cls-8" transform="translate(186.84 64.45)"><tspan x="0" y="0" xml:space="preserve">Ex      s</tspan><tspan class="cls-10" x="256.48" y="0">t</tspan><tspan x="283.58" y="0">en</tspan><tspan class="cls-9" x="388.67" y="0">c</tspan><tspan x="433.46" y="0">e</tspan></text>
  <text class="cls-8" transform="translate(0 161.5)"><tspan x="0" y="0" xml:space="preserve">Numer      que</tspan></text>
</svg>